<svg id="Capa_1" enable-background="new 0 0 512 512" height="512" viewBox="0 0 512 512" width="512" xmlns="http://www.w3.org/2000/svg" xmlns:xlink="http://www.w3.org/1999/xlink"><linearGradient id="SVGID_1_" gradientUnits="userSpaceOnUse" x1="256" x2="256" y1="512" y2="0"><stop offset="0" stop-color="#5558ff"/><stop offset="1" stop-color="#00c0ff"/></linearGradient><g><g><path d="m266.606 4.393c-.001-.001-.002-.002-.003-.003-2.809-2.807-6.657-4.39-10.603-4.39h-210c-8.284 0-15 6.716-15 15v482c0 8.284 6.716 15 15 15h300c8.284 0 15-6.716 15-15v-392c0-3.922-1.562-7.775-4.394-10.607zm4.394 46.82 38.787 38.787h-38.787zm60 430.787h-270v-452h180v75c0 8.284 6.716 15 15 15h75zm105-392c-24.813 0-45 20.187-45 45v258.574c0 31.547 12.536 62.176 34.394 84.033 2.928 2.929 6.767 4.393 10.606 4.393s7.678-1.464 10.606-4.393c21.858-21.857 34.394-52.486 34.394-84.033v-258.574c0-24.813-20.187-45-45-45zm15 303.574c0 17.899-5.346 35.365-15 49.857-9.654-14.491-15-31.958-15-49.857v-92.574h30zm0-122.574h-30v-136c0-8.271 6.729-15 15-15s15 6.729 15 15zm-255-113.719c-9.194-4.029-19.336-6.281-30-6.281-41.355 0-75 33.645-75 75s33.645 75 75 75c10.664 0 20.806-2.252 30-6.281 9.194 4.029 19.336 6.281 30 6.281 41.355 0 75-33.645 75-75s-33.645-75-75-75c-10.664 0-20.806 2.252-30 6.281zm-29.96 113.718c-.014 0-.027.001-.04.001-24.813 0-45-20.187-45-45s20.187-45 45-45c.013 0 .027.001.04.001-9.437 12.544-15.04 28.128-15.04 44.999s5.603 32.455 15.04 44.999zm29.96-11.494c-9.199-8.245-15-20.208-15-33.505s5.801-25.26 15-33.505c9.199 8.245 15 20.208 15 33.505s-5.801 25.26-15 33.505zm75-33.505c0 24.813-20.187 45-45 45-.013 0-.027-.001-.04-.001 9.437-12.544 15.04-28.128 15.04-44.999s-5.603-32.455-15.04-44.999c.014 0 .027-.001.04-.001 24.813 0 45 20.187 45 45zm15 105h-180c-8.284 0-15 6.716-15 15s6.716 15 15 15h180c8.284 0 15-6.716 15-15s-6.716-15-15-15zm-30 60h-120c-8.284 0-15 6.716-15 15s6.716 15 15 15h120c8.284 0 15-6.716 15-15s-6.716-15-15-15z" fill="url(#SVGID_1_)"/></g></g></svg>